<svg width="20" height="10" viewBox="0 0 20 10" fill="none" xmlns="http://www.w3.org/2000/svg">
<path d="M3.99664 5C3.99664 5.3797 4.27855 5.6935 4.64432 5.7432L4.74601 5.75H17.4403L15.2237 7.9697C14.9576 8.2359 14.9335 8.6526 15.1511 8.9462L15.2237 9.0303C15.4897 9.2966 15.906 9.3208 16.1994 9.1029L16.2835 9.0303L19.7805 5.5303C20.0466 5.2641 20.0707 4.8474 19.8531 4.5538L19.7805 4.4697L16.2835 0.96967C15.9908 0.67678 15.5163 0.67678 15.2237 0.96967C14.9576 1.23594 14.9335 1.6526 15.1511 1.94621L15.2237 2.03033L17.4403 4.25H4.74601C4.33214 4.25 3.99664 4.5858 3.99664 5ZM0 5C0 7.7614 2.23669 10 4.99579 10C7.13942 10 8.9677 8.6488 9.6767 6.7509L8.0246 6.7507C7.41982 7.7965 6.28989 8.5 4.99579 8.5C3.06442 8.5 1.49874 6.933 1.49874 5C1.49874 3.067 3.06442 1.5 4.99579 1.5C6.2903 1.5 7.42053 2.20396 8.0252 3.2502L9.6771 3.2501C8.9684 1.35172 7.1398 0 4.99579 0C2.23669 0 0 2.23858 0 5Z" fill="#99999A"/>
</svg>
